<svg width="39" height="39" viewBox="0 0 39 39" fill="none" xmlns="http://www.w3.org/2000/svg">
<path d="M27.758 13.6344L27.744 13.6284C27.736 13.6254 27.728 13.6224 27.721 13.6154C27.7095 13.6031 27.701 13.5883 27.6962 13.5722C27.6913 13.5561 27.6902 13.539 27.693 13.5224L28.466 8.79644L32.091 12.4224L28.321 14.0264C28.3105 14.0307 28.2993 14.0327 28.288 14.0324H28.273C28.268 14.0294 28.263 14.0254 28.253 14.0154C28.1127 13.8592 27.9449 13.7301 27.758 13.6344ZM33.016 13.3464L36.892 17.2224C37.697 18.0284 38.1 18.4304 38.247 18.8964C38.269 18.9654 38.287 19.0344 38.301 19.1054L29.038 15.1824C29.033 15.1804 29.028 15.1784 29.023 15.1764C28.986 15.1614 28.943 15.1444 28.943 15.1064C28.943 15.0684 28.987 15.0504 29.024 15.0354L29.036 15.0304L33.016 13.3464ZM38.143 20.3494C37.943 20.7254 37.553 21.1154 36.893 21.7764L32.523 26.1454L26.871 24.9684L26.841 24.9624C26.791 24.9544 26.738 24.9454 26.738 24.9004C26.7165 24.6673 26.6473 24.441 26.5346 24.2358C26.4219 24.0305 26.2682 23.8507 26.083 23.7074C26.06 23.6844 26.066 23.6484 26.073 23.6154C26.073 23.6104 26.073 23.6054 26.075 23.6014L27.138 17.0754L27.142 17.0534C27.148 17.0034 27.157 16.9454 27.202 16.9454C27.4298 16.9171 27.6497 16.8437 27.8488 16.7295C28.048 16.6154 28.2224 16.4627 28.362 16.2804C28.371 16.2704 28.377 16.2594 28.389 16.2534C28.421 16.2384 28.459 16.2534 28.492 16.2674L38.142 20.3494H38.143ZM31.518 27.1504L24.332 34.3364L25.562 26.7764L25.564 26.7664C25.565 26.7564 25.567 26.7464 25.57 26.7374C25.58 26.7134 25.606 26.7034 25.631 26.6934L25.643 26.6884C25.9123 26.5735 26.1505 26.3963 26.338 26.1714C26.362 26.1434 26.391 26.1164 26.428 26.1114C26.4376 26.1099 26.4474 26.1099 26.457 26.1114L31.517 27.1514L31.518 27.1504ZM22.811 35.8574L22.001 36.6674L13.046 23.7254C13.0428 23.7207 13.0394 23.716 13.036 23.7114C13.022 23.6924 13.007 23.6734 13.01 23.6514C13.01 23.6354 13.021 23.6214 13.032 23.6094L13.042 23.5964C13.069 23.5564 13.092 23.5164 13.117 23.4734L13.137 23.4384L13.14 23.4354C13.154 23.4114 13.167 23.3884 13.191 23.3754C13.212 23.3654 13.241 23.3694 13.264 23.3744L23.185 25.4204C23.2127 25.4248 23.2389 25.4361 23.261 25.4534C23.274 25.4664 23.277 25.4804 23.28 25.4964C23.3492 25.7583 23.478 26.0006 23.6563 26.2044C23.8347 26.4082 24.0577 26.5681 24.308 26.6714C24.336 26.6854 24.324 26.7164 24.311 26.7494C24.3045 26.7639 24.2995 26.779 24.296 26.7944C24.171 27.5544 23.099 34.0924 22.811 35.8574ZM21.119 37.5484C20.522 38.1394 20.17 38.4524 19.772 38.5784C19.3796 38.7025 18.9584 38.7025 18.566 38.5784C18.1 38.4304 17.697 38.0284 16.892 37.2224L7.899 28.2294L10.248 24.5864C10.259 24.5684 10.27 24.5524 10.288 24.5394C10.313 24.5214 10.349 24.5294 10.379 24.5394C10.9182 24.7021 11.497 24.6728 12.017 24.4564C12.044 24.4464 12.071 24.4394 12.092 24.4584C12.1025 24.468 12.1119 24.4788 12.12 24.4904L21.119 37.5494V37.5484ZM7.032 27.3624L4.969 25.2994L9.043 23.5614C9.05341 23.5569 9.06464 23.5545 9.076 23.5544C9.11 23.5544 9.13 23.5884 9.148 23.6194C9.18894 23.6824 9.23231 23.7438 9.278 23.8034L9.291 23.8194C9.303 23.8364 9.295 23.8534 9.283 23.8694L7.033 27.3624H7.032ZM4.056 24.3864L1.446 21.7764C1.002 21.3324 0.68 21.0104 0.456 20.7334L8.392 22.3794C8.40197 22.3813 8.41197 22.383 8.422 22.3844C8.471 22.3924 8.525 22.4014 8.525 22.4474C8.525 22.4974 8.466 22.5204 8.416 22.5394L8.393 22.5494L4.056 24.3864ZM0 19.3914C0.00904416 19.2233 0.0392834 19.057 0.09 18.8964C0.238 18.4304 0.64 18.0284 1.446 17.2224L4.786 13.8824C6.32383 16.1143 7.86584 18.3433 9.412 20.5694C9.439 20.6054 9.469 20.6454 9.438 20.6754C9.292 20.8364 9.146 21.0124 9.043 21.2034C9.03183 21.228 9.01463 21.2493 8.993 21.2654C8.98 21.2734 8.966 21.2704 8.951 21.2674H8.949L0 19.3904V19.3914ZM5.68 12.9884L10.169 8.49744C10.592 8.68244 12.129 9.33144 13.502 9.91144C14.542 10.3514 15.49 10.7514 15.788 10.8814C15.818 10.8934 15.845 10.9054 15.858 10.9354C15.866 10.9534 15.862 10.9764 15.858 10.9954C15.7869 11.3196 15.7975 11.6564 15.8888 11.9754C15.9801 12.2945 16.1492 12.5859 16.381 12.8234C16.411 12.8534 16.381 12.8964 16.355 12.9334L16.341 12.9544L11.781 20.0174C11.769 20.0374 11.758 20.0544 11.738 20.0674C11.714 20.0824 11.68 20.0754 11.652 20.0684C11.4746 20.022 11.2923 19.9971 11.109 19.9944C10.945 19.9944 10.767 20.0244 10.587 20.0574H10.586C10.566 20.0604 10.548 20.0644 10.532 20.0524C10.5143 20.038 10.4991 20.0208 10.487 20.0014L5.679 12.9884H5.68ZM11.078 7.59044L16.892 1.77644C17.697 0.971437 18.1 0.568437 18.566 0.421437C18.9584 0.297347 19.3796 0.297347 19.772 0.421437C20.238 0.568437 20.641 0.971437 21.446 1.77644L22.706 3.03644L18.571 9.44044C18.5608 9.45908 18.5468 9.47542 18.53 9.48844C18.505 9.50544 18.47 9.49844 18.44 9.48844C18.114 9.3895 17.7688 9.37149 17.4342 9.43596C17.0997 9.50042 16.7859 9.64543 16.52 9.85844C16.493 9.88644 16.453 9.87044 16.419 9.85544C15.879 9.62044 11.679 7.84544 11.078 7.59044ZM23.584 3.91444L27.402 7.73244L26.482 13.4304V13.4454C26.4812 13.4584 26.4785 13.4712 26.474 13.4834C26.464 13.5034 26.444 13.5074 26.424 13.5134C26.2273 13.573 26.042 13.6653 25.876 13.7864C25.8689 13.7915 25.8622 13.7972 25.856 13.8034C25.845 13.8154 25.834 13.8264 25.816 13.8284C25.8013 13.8289 25.7868 13.8265 25.773 13.8214L19.955 11.3494L19.944 11.3444C19.907 11.3294 19.863 11.3114 19.863 11.2734C19.8288 10.9492 19.7229 10.6367 19.553 10.3584C19.525 10.3124 19.494 10.2644 19.518 10.2174L23.584 3.91444ZM19.652 12.5204L25.106 14.8304C25.136 14.8444 25.169 14.8574 25.182 14.8884C25.1872 14.9071 25.1872 14.9268 25.182 14.9454C25.166 15.0254 25.152 15.1164 25.152 15.2084V15.3614C25.152 15.3994 25.113 15.4154 25.077 15.4304L25.066 15.4344C24.202 15.8034 12.936 20.6074 12.919 20.6074C12.902 20.6074 12.884 20.6074 12.867 20.5904C12.837 20.5604 12.867 20.5184 12.894 20.4804C12.8988 20.4738 12.9034 20.4672 12.908 20.4604L17.39 13.5204L17.398 13.5084C17.424 13.4664 17.454 13.4194 17.502 13.4194L17.547 13.4264C17.649 13.4404 17.739 13.4534 17.83 13.4534C18.51 13.4534 19.14 13.1224 19.52 12.5564C19.5291 12.5413 19.5405 12.5278 19.554 12.5164C19.581 12.4964 19.621 12.5064 19.652 12.5204ZM13.406 21.7054L25.686 16.4684C25.686 16.4684 25.704 16.4684 25.721 16.4854C25.788 16.5524 25.845 16.5974 25.9 16.6394L25.927 16.6564C25.952 16.6704 25.977 16.6864 25.979 16.7124C25.979 16.7224 25.979 16.7284 25.977 16.7374L24.925 23.1994L24.921 23.2254C24.914 23.2754 24.907 23.3324 24.86 23.3324C24.5795 23.3514 24.3079 23.4384 24.0687 23.586C23.8294 23.7336 23.6298 23.9373 23.487 24.1794L23.482 24.1874C23.468 24.2104 23.455 24.2324 23.432 24.2444C23.411 24.2544 23.384 24.2504 23.362 24.2454L13.569 22.2254C13.559 22.2234 13.417 21.7064 13.406 21.7054Z" fill="white"/>
</svg>
